<?xml version="1.0" encoding="UTF-8" standalone="no"?>
<!-- Created with Inkscape (http://www.inkscape.org/) -->

<svg
   width="256"
   height="256"
   viewBox="0 0 67.733333 67.733333"
   version="1.1"
   id="svg5"
   sodipodi:docname="loading.svg"
   inkscape:export-filename="C:\Users\bajti\RiderProjects\Karate\Karate\Assets\loading.png"
   inkscape:export-xdpi="200"
   inkscape:export-ydpi="200"
   inkscape:version="1.1 (c68e22c387, 2021-05-23)"
   xmlns:inkscape="http://www.inkscape.org/namespaces/inkscape"
   xmlns:sodipodi="http://sodipodi.sourceforge.net/DTD/sodipodi-0.dtd"
   xmlns="http://www.w3.org/2000/svg"
   xmlns:svg="http://www.w3.org/2000/svg">
  <sodipodi:namedview
     id="namedview7"
     pagecolor="#505050"
     bordercolor="#eeeeee"
     borderopacity="1"
     inkscape:pageshadow="0"
     inkscape:pageopacity="0"
     inkscape:pagecheckerboard="0"
     inkscape:document-units="mm"
     showgrid="false"
     units="px"
     width="256px"
     inkscape:zoom="2.9362514"
     inkscape:cx="111.70706"
     inkscape:cy="142.1881"
     inkscape:window-width="2560"
     inkscape:window-height="1009"
     inkscape:window-x="1912"
     inkscape:window-y="-8"
     inkscape:window-maximized="1"
     inkscape:current-layer="g15237" />
  <defs
     id="defs2" />
  <g
     inkscape:label="Warstwa 1"
     inkscape:groupmode="layer"
     id="layer1">
    <g
       id="g15237"
       transform="translate(0,0.6808269)">
      <path
         style="fill:#9d439c;fill-opacity:1;stroke:none;stroke-width:0.194376;stroke-linecap:butt;stroke-linejoin:miter;stroke-miterlimit:4;stroke-dasharray:none;stroke-opacity:1"
         d="m 30.929703,30.124096 c 0,0 -1.03174,-2.594959 -2.685708,-3.587784 -1.653968,-0.992825 -2.919891,-2.008917 -4.81992,-2.536677 -1.900026,-0.527761 -3.589472,-1.169469 -6.133045,-0.62293 -2.543571,0.546538 -3.553919,0.325676 -5.276407,1.734858 -1.722488,1.40918 -2.1744076,1.695206 -2.51746,2.627652 -0.3430524,0.932446 -0.8399657,0.309294 0.085264,2.11134 0.925234,1.802047 1.273154,4.269143 2.82777,5.875843 1.554615,1.606699 3.000362,2.566978 4.483948,3.029648 1.483584,0.462671 2.340147,0.974196 3.118597,0.781167 0.778449,-0.193027 2.832264,0.04407 4.053192,0.150983 1.220931,0.106915 3.828378,-0.702381 4.699101,-1.069808 0.870721,-0.367427 1.92363,-0.937159 2.164967,-1.109238 0.145361,-0.103641 1.075951,-0.860751 1.029219,-2.95839 -0.03086,-1.385112 -1.02952,-4.426664 -1.02952,-4.426664 z"
         id="path994"
         sodipodi:nodetypes="csssssssssssssc" />
      <path
         style="fill:#a8489f;fill-opacity:1;stroke:none;stroke-width:0.196212;stroke-linejoin:round;stroke-miterlimit:4;stroke-dasharray:none;stroke-opacity:1"
         d="m 37.820711,36.03143 c 0,0 1.25573,1.068155 2.756637,1.580941 1.500907,0.512779 3.205111,0.891867 4.516379,0.763014 1.311269,-0.128859 3.204222,-1.012495 4.290956,-1.431605 1.086739,-0.419107 2.860146,-2.01238 4.065831,-2.991429 1.205685,-0.979049 3.237932,-3.903035 4.113795,-5.387739 0.875864,-1.484702 1.282165,-2.386895 1.246533,-3.622471 -0.03564,-1.235577 0.300862,-1.434988 -0.961846,-2.432864 -1.262709,-0.997875 -1.809938,-1.546666 -3.584087,-1.540363 -1.774149,0.0063 -3.015626,-0.567618 -4.305805,-0.332203 -1.290186,0.235418 -2.566556,0.01289 -3.449844,0.615685 -0.88329,0.602801 -2.208665,0.554821 -3.575626,1.563298 -1.366958,1.008473 -5.425808,3.929626 -6.224895,4.64127 -0.799089,0.711644 -0.981299,0.951906 -1.983687,1.797254 -1.002386,0.845345 -1.871862,0.990197 -1.604858,2.128354 0.267005,1.138159 4.700523,4.648867 4.700523,4.648867 z"
         id="path12117" />
      <path
         style="fill:#8c46a3;fill-opacity:1;stroke:none;stroke-width:0.196691px;stroke-linecap:butt;stroke-linejoin:miter;stroke-opacity:1"
         d="m 30.551812,33.097739 c 0,0 -2.321964,-3.398831 -2.595952,-4.455979 -0.273987,-1.057149 -2.281849,-4.889996 -2.296539,-6.776866 -0.01469,-1.886869 -0.02691,-2.998568 0.589112,-4.05691 0.616024,-1.058342 2.096478,-2.425394 2.617542,-3.309667 0.521063,-0.884273 1.014119,-1.929845 1.873651,-2.867511 0.859535,-0.937667 1.512108,-1.425076 2.605438,-1.6572042 1.093328,-0.2321296 1.216297,-0.2448989 2.42288,0.095062 1.206582,0.339963 1.882309,0.306285 2.985429,1.332068 1.103121,1.025784 3.20097,2.212832 3.613754,3.2282 0.412782,1.015365 1.74116,2.337054 1.673032,3.666916 -0.06812,1.329863 -0.167902,2.71775 -0.453996,3.313065 -0.286094,0.595315 -0.745067,1.43665 -1.176027,2.439285 -0.430964,1.002633 -0.620884,1.350773 -1.200392,2.058661 -0.579514,0.707889 -0.891188,0.995689 -1.675232,2.00762 -0.784045,1.011932 -2.005122,3.392036 -3.142249,4.413264 -1.137126,1.021227 -2.207303,1.707087 -2.579855,1.964719 -0.372553,0.257631 -3.260594,-1.394722 -3.260594,-1.394722 z"
         id="path7505" />
      <path
         style="fill:#893b75;fill-opacity:1;stroke:none;stroke-width:0.207239;stroke-linecap:butt;stroke-linejoin:miter;stroke-miterlimit:4;stroke-dasharray:none;stroke-opacity:1"
         d="m 32.704143,43.292952 c 0,0 -0.208262,3.069602 0.882298,4.831116 1.090556,1.761511 1.810029,3.365317 3.338418,4.77763 1.528391,1.412313 2.809836,2.840113 5.419461,3.480809 2.609623,0.640697 3.449238,1.33207 5.68378,0.729431 2.234541,-0.602636 2.783167,-0.677261 3.521341,-1.447472 0.738176,-0.770209 0.91971,0.08309 0.870338,-2.1459 -0.04938,-2.228984 0.736873,-4.852224 0.01473,-7.17978 -0.722137,-2.327556 -1.633826,-3.959525 -2.804479,-5.112748 -1.170652,-1.153226 -1.736623,-2.062848 -2.546875,-2.233231 -0.810251,-0.170383 -2.612291,-1.364445 -3.698863,-2.040304 -1.086559,-0.675891 -3.873724,-1.084253 -4.848164,-1.123686 -0.974436,-0.03944 -2.209174,0.038 -2.51085,0.09714 -0.181696,0.03562 -1.387038,0.356991 -2.287023,2.471258 -0.594281,1.396093 -1.034137,4.89577 -1.034137,4.89577 z"
         id="path994-8"
         sodipodi:nodetypes="csssssssssssssc" />
      <path
         style="fill:#94408f;fill-opacity:1;stroke:none;stroke-width:0.203231px;stroke-linecap:butt;stroke-linejoin:miter;stroke-opacity:1"
         d="m 35.649657,38.039329 c 0,0 0.193078,4.404969 -0.126191,5.544738 -0.31927,1.13977 -0.618285,5.793469 -1.589573,7.584064 -0.971284,1.790592 -1.540523,2.8474 -2.613625,3.530958 -1.073102,0.683553 -3.038705,1.214644 -3.940692,1.782506 -0.901988,0.567858 -1.864358,1.302546 -3.080627,1.746934 -1.216266,0.444392 -2.022643,0.56965 -3.068937,0.22719 -1.046294,-0.342459 -1.157018,-0.39358 -2.0009,-1.334847 -0.84388,-0.941269 -1.4333,-1.25667 -1.832069,-2.792859 -0.398769,-1.536188 -1.555292,-3.735915 -1.375268,-4.907524 0.180027,-1.171607 -0.255106,-3.103165 0.495871,-4.324845 0.750977,-1.22168 1.558991,-2.481927 2.111475,-2.897473 0.552484,-0.415549 1.379536,-0.974742 2.266978,-1.700752 0.887442,-0.72601 1.229672,-0.957399 2.089164,-1.328551 0.859493,-0.371148 1.273305,-0.482955 2.464403,-1.036316 1.191099,-0.553364 3.465349,-2.17504 4.960105,-2.555752 1.494755,-0.380714 2.758009,-0.478914 3.20761,-0.53093 0.449603,-0.05201 2.032275,2.99346 2.032275,2.99346 z"
         id="path7505-5" />
      <path
         id="path14261"
         style="fill:#c26e89;stroke:none;stroke-width:0.264999;stroke-linejoin:round;fill-opacity:1"
         d="m 35.409551,37.780723 c -1.098144,0.256091 -2.054507,0.429964 -2.992616,-0.03266 -1.214826,-0.599095 -2.303157,-2.044347 -2.634787,-3.466411 -0.173063,-0.74211 0.01541,-1.33856 0.211906,-2.074046 0.147699,-0.552846 0.23741,-1.269277 0.528526,-1.71322 0.63683,-0.971149 1.538371,-1.555565 2.758643,-1.840137 0.940686,-0.219372 1.793105,0.572338 2.714892,0.625282 1.223291,0.07026 2.64239,1.434931 3.01074,3.014452 0.332413,1.425418 -0.260157,3.101876 -1.190115,3.743075 -0.858532,0.591954 -1.3124,1.48836 -2.407189,1.743669 z"
         sodipodi:nodetypes="ssssssssss" />
    </g>
  </g>
</svg>
