<?xml version="1.0" encoding="UTF-8" standalone="no"?>
<!-- Created with Inkscape (http://www.inkscape.org/) -->

<svg
   width="80mm"
   height="80mm"
   viewBox="0 0 80 80"
   version="1.1"
   id="svg24628"
   inkscape:version="1.1 (c68e22c387, 2021-05-23)"
   sodipodi:docname="loading.svg"
   xmlns:inkscape="http://www.inkscape.org/namespaces/inkscape"
   xmlns:sodipodi="http://sodipodi.sourceforge.net/DTD/sodipodi-0.dtd"
   xmlns="http://www.w3.org/2000/svg"
   xmlns:svg="http://www.w3.org/2000/svg">
  <sodipodi:namedview
     id="namedview24630"
     pagecolor="#505050"
     bordercolor="#eeeeee"
     borderopacity="1"
     inkscape:pageshadow="0"
     inkscape:pageopacity="0"
     inkscape:pagecheckerboard="0"
     inkscape:document-units="mm"
     showgrid="false"
     fit-margin-top="1"
     fit-margin-bottom="1"
     fit-margin-left="1"
     fit-margin-right="1"
     lock-margins="true"
     inkscape:zoom="1.4681257"
     inkscape:cx="108.98249"
     inkscape:cy="159.04633"
     inkscape:window-width="1920"
     inkscape:window-height="1009"
     inkscape:window-x="4472"
     inkscape:window-y="-8"
     inkscape:window-maximized="1"
     inkscape:current-layer="layer1" />
  <defs
     id="defs24625" />
  <g
     inkscape:label="Warstwa 1"
     inkscape:groupmode="layer"
     id="layer1"
     transform="translate(-36.068195,-72.870033)">
    <path
       style="fill:#8b35b5;fill-opacity:1;stroke:#000000;stroke-width:0.264583px;stroke-linecap:butt;stroke-linejoin:miter;stroke-opacity:0.11583"
       d="m 64.96875,110.4739 c -8.19994,-3.87469 -14.958131,-4.68567 -15.859223,-11.263646 -0.901094,-6.577973 1.261528,-14.507585 5.046115,-16.850426 3.784589,-2.342838 15.408677,-4.235132 19.373485,-3.784587 3.964805,0.450546 7.118627,1.892295 8.830704,5.046118 1.712073,3.153823 2.793383,7.118628 2.07251,9.371359 -0.720873,2.252731 -3.153823,8.290052 -3.153823,8.290052 z"
       id="path24746" />
    <path
       style="fill:#732d96;fill-opacity:1;stroke:#000000;stroke-width:0.264583px;stroke-linecap:butt;stroke-linejoin:miter;stroke-opacity:0.11583"
       d="m 77.403433,100.34525 c 3.001689,-8.55816 3.106059,-15.364035 9.554806,-16.943745 6.448737,-1.579712 14.560141,-0.252735 17.283541,3.267929 2.7234,3.520667 5.81327,14.885216 5.77714,18.875376 -0.0361,3.99017 -1.14238,7.27673 -4.10123,9.30724 -2.95887,2.03051 -6.789858,3.51793 -9.105297,3.03503 -2.315441,-0.48289 -8.572876,-2.27536 -8.572876,-2.27536 z"
       id="path24746-7" />
    <path
       style="fill:#6218a1;fill-opacity:1;stroke:#000000;stroke-width:0.264583px;stroke-linecap:butt;stroke-linejoin:miter;stroke-opacity:0.11583"
       d="m 85.061531,108.49971 c 8.998427,1.13161 17.475779,-0.19999 20.378419,5.77132 2.90266,5.9713 3.31407,14.18023 0.44606,17.58412 -2.86801,3.4039 -13.326702,8.81831 -17.234956,9.62349 -3.908247,0.80522 -7.354097,0.41605 -9.96231,-2.0487 -2.608218,-2.46477 -4.869237,-5.89648 -4.884903,-8.26169 -0.01571,-2.36521 0.692412,-14.33827 0.418489,-8.85982 z"
       id="path24746-7-3"
       sodipodi:nodetypes="csscsccc" />
    <path
       style="fill:#5c1e95;fill-opacity:1;stroke:#000000;stroke-width:0.268836px;stroke-linecap:butt;stroke-linejoin:miter;stroke-opacity:0.11583"
       d="m 72.977657,122.58786 c -6.490521,6.25761 -9.467383,12.23513 -16.307058,10.80493 -6.83968,-1.43017 -14.041922,-6.162 -15.160138,-10.47224 -1.118227,-4.31023 0.728566,-15.72311 2.449872,-19.23859 1.72127,-3.51553 4.169352,-5.938973 7.859517,-6.438329 3.690184,-0.499349 7.985461,-0.135565 9.99737,1.307293 2.011934,1.442825 7.243004,5.773546 7.243004,5.773546 z"
       id="path24746-7-3-7" />
    <path
       style="fill:#761c8d;fill-opacity:1;stroke:#000000;stroke-width:0.268836px;stroke-linecap:butt;stroke-linejoin:miter;stroke-opacity:0.11583"
       d="m 79.735307,113.34161 c 5.602489,7.06377 11.265053,10.60324 9.181892,17.2731 -2.083133,6.66987 -7.487503,13.38219 -11.885493,14.07951 -4.397984,0.69732 -15.579557,-2.24153 -18.912654,-4.29385 -3.333135,-2.0523 -5.509185,-4.72268 -5.65033,-8.44381 -0.141131,-3.72113 0.635197,-10.66459 2.265358,-12.52797 1.630135,-1.86341 11.7616,-5.57112 11.7616,-5.57112 z"
       id="path24746-7-3-7-0"
       sodipodi:nodetypes="csscsccc" />
    <ellipse
       style="fill:#f5beff;fill-opacity:0.992278;stroke-width:2.69751;stroke-linejoin:round"
       id="path24711"
       cx="76.187347"
       cy="108.49151"
       rx="10.858162"
       ry="9.3713589" />
    <ellipse
       style="fill:#f3d0ff;fill-opacity:1;stroke-width:2.24255;stroke-linejoin:round"
       id="path24711-4"
       cx="79.206009"
       cy="106.82448"
       rx="9.2361956"
       ry="7.6142292" />
  </g>
</svg>
