<svg id="e8ebpOWjZgA1" xmlns="http://www.w3.org/2000/svg" xmlns:xlink="http://www.w3.org/1999/xlink" viewBox="0 0 67.733333 67.733333" shape-rendering="geometricPrecision" text-rendering="geometricPrecision"><style><![CDATA[#e8ebpOWjZgA4_tr {animation: e8ebpOWjZgA4_tr__tr 6000ms linear 1 normal forwards}@keyframes e8ebpOWjZgA4_tr__tr { 0% {transform: translate(34.407045px,33.18584px) rotate(-17.887133deg)} 10% {transform: translate(34.407045px,33.18584px) rotate(-17.887133deg)} 43.333333% {transform: translate(34.407045px,33.18584px) rotate(17.496112deg)} 60% {transform: translate(34.407045px,33.18584px) rotate(17.496112deg)} 93.333333% {transform: translate(34.407045px,33.18584px) rotate(-17.887133deg)} 100% {transform: translate(34.407045px,33.18584px) rotate(-17.887133deg)}} #e8ebpOWjZgA5_tr {animation: e8ebpOWjZgA5_tr__tr 6000ms linear 1 normal forwards}@keyframes e8ebpOWjZgA5_tr__tr { 0% {transform: translate(34.407045px,33.326054px) rotate(-9.590594deg)} 3.333333% {transform: translate(34.407045px,33.326054px) rotate(-9.590594deg)} 36.666667% {transform: translate(34.407045px,33.326054px) rotate(21.05825deg)} 53.333333% {transform: translate(34.407045px,33.326054px) rotate(21.05825deg)} 86.666667% {transform: translate(34.407045px,33.326054px) rotate(-9.590594deg)} 100% {transform: translate(34.407045px,33.326054px) rotate(-9.590594deg)}} #e8ebpOWjZgA6_tr {animation: e8ebpOWjZgA6_tr__tr 6000ms linear 1 normal forwards}@keyframes e8ebpOWjZgA6_tr__tr { 0% {transform: translate(34.848999px,33.18584px) rotate(-32.595419deg)} 6.666667% {transform: translate(34.848999px,33.18584px) rotate(-32.595419deg)} 40% {transform: translate(34.848999px,33.18584px) rotate(21.523785deg)} 56.666667% {transform: translate(34.848999px,33.18584px) rotate(21.523785deg)} 90% {transform: translate(34.848999px,33.18584px) rotate(-32.595419deg)} 100% {transform: translate(34.848999px,33.18584px) rotate(-32.595419deg)}} #e8ebpOWjZgA7_tr {animation: e8ebpOWjZgA7_tr__tr 6000ms linear 1 normal forwards}@keyframes e8ebpOWjZgA7_tr__tr { 0% {transform: translate(34.407045px,33.326054px) rotate(-10.961073deg)} 33.333333% {transform: translate(34.407045px,33.326054px) rotate(17.088626deg)} 50% {transform: translate(34.407045px,33.326054px) rotate(17.088626deg)} 83.333333% {transform: translate(34.407045px,33.326054px) rotate(-10.961073deg)} 100% {transform: translate(34.407045px,33.326054px) rotate(-10.961073deg)}} #e8ebpOWjZgA8_tr {animation: e8ebpOWjZgA8_tr__tr 6000ms linear 1 normal forwards}@keyframes e8ebpOWjZgA8_tr__tr { 0% {transform: translate(34.407045px,33.326054px) rotate(-13.354327deg)} 13.333333% {transform: translate(34.407045px,33.326054px) rotate(-13.354327deg)} 46.666667% {transform: translate(34.407045px,33.326054px) rotate(14.170131deg)} 63.333333% {transform: translate(34.407045px,33.326054px) rotate(14.170131deg)} 96.666667% {transform: translate(34.407045px,33.326054px) rotate(-13.354327deg)} 100% {transform: translate(34.407045px,33.326054px) rotate(-13.354327deg)}}]]></style><g id="e8ebpOWjZgA2"><g id="e8ebpOWjZgA3" transform="matrix(1 0 0 1 0 0.680827)"><g id="e8ebpOWjZgA4_tr" transform="translate(34.407045,33.18584) rotate(-17.887133)"><path id="e8ebpOWjZgA4" d="M30.929703,30.124096C30.929703,30.124096,29.897963,27.529137,28.243995,26.536312C26.590027,25.543487,25.324104,24.527395,23.424075,23.999635C21.524049,23.471874,19.834603,22.830166,17.29103,23.376705C14.747459,23.923243,13.737111,23.702381,12.014623,25.111563C10.292135,26.520743,9.840215,26.806769,9.497163,27.739215C9.154111,28.671661,8.657197,28.048509,9.582427,29.850555C10.507661,31.652602,10.855581,34.119698,12.410197,35.726398C13.964812,37.333097,15.410559,38.293376,16.894145,38.756046C18.377729,39.218717,19.234292,39.730242,20.012742,39.537213C20.791191,39.344186,22.845006,39.581283,24.065934,39.688196C25.286865,39.795111,27.894312,38.985815,28.765035,38.618388C29.635756,38.250961,30.688665,37.681229,30.930002,37.50915C31.075363,37.405509,32.005953,36.648399,31.959221,34.55076C31.928361,33.165648,30.929701,30.124096,30.929701,30.124096Z" transform="translate(-34.407041,-33.18583)" fill="rgb(157,67,156)" stroke="none" stroke-width="0.194376"/></g><g id="e8ebpOWjZgA5_tr" transform="translate(34.407045,33.326054) rotate(-9.590594)"><path id="e8ebpOWjZgA5" d="M37.820711,36.421663C37.820711,36.421663,39.076441,37.516794,40.577348,38.042531C42.078255,38.56826,43.782459,38.956922,45.093727,38.824815C46.404996,38.692702,48.297949,37.786749,49.384683,37.357054C50.471422,36.927363,52.244829,35.293851,53.450514,34.290076C54.656199,33.2863,56.688446,30.288468,57.564309,28.766267C58.440173,27.244068,58.846474,26.31909,58.810842,25.052309C58.775202,23.785527,59.111704,23.58108,57.848996,22.558002C56.586287,21.534925,56.039058,20.972274,54.264909,20.978736C52.49076,20.985236,51.249283,20.396783,49.959104,20.638143C48.668918,20.879507,47.392548,20.651363,46.50926,21.269378C45.62597,21.887403,44.300595,21.838211,42.933634,22.872158C41.566676,23.9061,37.507826,26.901028,36.708739,27.630645C35.90965,28.360262,35.72744,28.606592,34.725052,29.473289C33.722666,30.339984,32.85319,30.488494,33.120194,31.655396C33.387199,32.822299,37.820717,36.421672,37.820717,36.421672Z" transform="translate(-34.407041,-33.32605)" fill="rgb(168,72,159)" stroke="none" stroke-width="0.198674" stroke-linejoin="round"/></g><g id="e8ebpOWjZgA6_tr" transform="translate(34.848999,33.18584) rotate(-32.595419)"><path id="e8ebpOWjZgA6" d="M30.551812,33.097739C30.551812,33.097739,28.229848,29.698908,27.95586,28.64176C27.681873,27.584611,25.674011,23.751764,25.659321,21.864894C25.644631,19.978025,25.632411,18.866326,26.248433,17.807984C26.864457,16.749642,28.344911,15.38259,28.865975,14.498317C29.387038,13.614044,29.880094,12.568472,30.739626,11.630806C31.599161,10.693139,32.251734,10.20573,33.345064,9.973602C34.438392,9.741472,34.561361,9.728703,35.767944,10.068664C36.974526,10.408627,37.650253,10.374949,38.753373,11.400732C39.856494,12.426516,41.954343,13.613564,42.367127,14.628932C42.779909,15.644297,44.108287,16.965986,44.040159,18.295848C43.972039,19.625711,43.872257,21.013598,43.586163,21.608913C43.300069,22.204228,42.841096,23.045563,42.410136,24.048198C41.979172,25.050831,41.789252,25.398971,41.209744,26.106859C40.63023,26.814748,40.318556,27.102548,39.534512,28.114479C38.750467,29.126411,37.52939,31.506515,36.392263,32.527743C35.255137,33.54897,34.18496,34.23483,33.812408,34.492462C33.439855,34.750093,30.551814,33.09774,30.551814,33.09774Z" transform="translate(-34.848992,-33.185836)" fill="rgb(140,70,163)" stroke="none" stroke-width="0.196691"/></g><g id="e8ebpOWjZgA7_tr" transform="translate(34.407045,33.326054) rotate(-10.961073)"><path id="e8ebpOWjZgA7" d="M32.704143,43.292952C32.704143,43.292952,32.495881,46.362554,33.586441,48.124068C34.676997,49.885579,35.39647,51.489385,36.924859,52.901698C38.45325,54.314011,39.734695,55.741811,42.34432,56.382507C44.953943,57.023204,45.793558,57.714577,48.0281,57.111938C50.262641,56.509302,50.811267,56.434677,51.549441,55.664466C52.287617,54.894257,52.469151,55.747556,52.419779,53.518566C52.370399,51.289582,53.156652,48.666342,52.434509,46.338786C51.712372,44.01123,50.800683,42.379261,49.63003,41.226038C48.459378,40.072812,47.893407,39.16319,47.083155,38.992807C46.272904,38.822424,44.470864,37.628362,43.384292,36.952503C42.297733,36.276612,39.510568,35.86825,38.536128,35.828817C37.561692,35.789377,36.326954,35.866817,36.025278,35.925957C35.843582,35.961577,34.63824,36.282948,33.738255,38.397215C33.143974,39.793308,32.704118,43.292985,32.704118,43.292985Z" transform="translate(-34.407032,-33.326053)" fill="rgb(137,59,117)" stroke="none" stroke-width="0.207239"/></g><g id="e8ebpOWjZgA8_tr" transform="translate(34.407045,33.326054) rotate(-13.354327)"><path id="e8ebpOWjZgA8" d="M35.649657,38.039329C35.649657,38.039329,35.842735,42.444298,35.523466,43.584067C35.204196,44.723837,34.905181,49.377536,33.933893,51.168131C32.962609,52.958723,32.39337,54.015531,31.320268,54.699089C30.247166,55.382642,28.281563,55.913733,27.379576,56.481595C26.477588,57.049453,25.515218,57.784141,24.298949,58.228529C23.082683,58.672921,22.276306,58.798179,21.230012,58.455719C20.183718,58.11326,20.072994,58.062139,19.229112,57.120872C18.385232,56.179603,17.795812,55.864202,17.397043,54.328013C16.998274,52.791825,15.841751,50.592098,16.021775,49.420489C16.201802,48.248882,15.766669,46.317324,16.517646,45.095644C17.268623,43.873964,18.076637,42.613717,18.629121,42.198171C19.181605,41.782622,20.008657,41.223429,20.896099,40.497419C21.783541,39.771409,22.125771,39.54002,22.985263,39.168868C23.844756,38.79772,24.258568,38.685913,25.449666,38.132552C26.640765,37.579188,28.915015,35.957512,30.409771,35.5768C31.904526,35.196086,33.16778,35.097886,33.617381,35.04587C34.066984,34.99386,35.649656,38.03933,35.649656,38.03933Z" transform="translate(-34.407041,-33.326053)" fill="rgb(148,64,143)" stroke="none" stroke-width="0.203231"/></g><path id="e8ebpOWjZgA9" d="M35.409551,37.780723C34.311407,38.036814,33.355044,38.210687,32.416935,37.748063C31.202109,37.148968,30.113778,35.703716,29.782148,34.281652C29.609085,33.539542,29.797558,32.943092,29.994054,32.207606C30.141753,31.65476,30.231464,30.938329,30.52258,30.494386C31.15941,29.523237,32.060951,28.938821,33.281223,28.654249C34.221909,28.434877,35.074328,29.226587,35.996115,29.279531C37.219406,29.349791,38.638505,30.714462,39.006855,32.293983C39.339268,33.719401,38.746698,35.395859,37.81674,36.037058C36.958208,36.629012,36.50434,37.525418,35.409551,37.780727Z" fill="rgb(194,110,137)" stroke="none" stroke-width="0.264999" stroke-linejoin="round"/></g></g></svg>